#N canvas 131 207 756 699 10;
#X obj 155 632 dac~;
#X obj 155 504 *~;
#X obj 44 135 r play;
#X obj 44 185 r stop;
#X obj 44 235 r freeze;
#X obj 155 177 phasor~;
#X obj 44 155 print play;
#X obj 44 205 print stop;
#X obj 44 255 print freeze;
#X obj 170 537 r play;
#X obj 170 583 line~;
#X obj 155 605 *~;
#X msg 170 560 1 10;
#X msg 220 560 0 10;
#X obj 220 537 r stop;
#X text 44 67 //PODEFAULTLENGTH:180;
#X obj 44 285 r thaw;
#X obj 44 305 print thaw;
#X obj 155 105 psr CMMotionManager.deviceMotion.attitude.roll 200 400
EaseInOut;
#X obj 170 458 psr POPlaybackTimerView.playbackPercentage 500 50;
#X obj 170 206 psr POPlaybackTimerView.playbackPercentage 0 1;
#X obj 215 177 osc~;
#X obj 170 375 line~;
#X obj 155 396 *~;
#N canvas 523 613 315 354 metro-pulse 1;
#X obj 70 118 inlet;
#X obj 43 294 outlet~;
#X obj 43 272 line~;
#X obj 43 164 metro;
#X obj 43 187 t b b;
#X obj 93 225 delay;
#X obj 70 142 t f f;
#X msg 93 247 0 5;
#X obj 120 202 * 0.25;
#X msg 43 247 0.75 5;
#X obj 43 14 r play;
#X msg 43 36 1;
#X obj 93 14 r stop;
#X msg 93 36 0;
#X obj 43 76 pipe 10;
#X connect 0 0 6 0;
#X connect 2 0 1 0;
#X connect 3 0 4 0;
#X connect 4 0 9 0;
#X connect 4 1 5 0;
#X connect 5 0 7 0;
#X connect 6 0 3 1;
#X connect 6 1 8 0;
#X connect 7 0 2 0;
#X connect 8 0 5 1;
#X connect 9 0 2 0;
#X connect 10 0 11 0;
#X connect 11 0 14 0;
#X connect 12 0 13 0;
#X connect 13 0 14 0;
#X connect 14 0 3 0;
#X restore 170 482 pd metro-pulse;
#X obj 230 375 line~;
#X obj 215 396 *~;
#X obj 155 425 +~;
#X obj 170 311 - 1;
#X obj 170 332 abs;
#X obj 215 156 * 3;
#X obj 310 297 change;
#X obj 310 318 print section changed to;
#X obj 182 235 loadbang;
#X msg 182 256 0;
#X msg 170 354 \$1 50;
#X msg 230 354 \$1 50;
#X obj 170 280 > 0.5;
#X text 44 37 //PODESCRIPTION:Roll to change frequency \, timer divides
sections.;
#X connect 1 0 11 0;
#X connect 2 0 6 0;
#X connect 3 0 7 0;
#X connect 4 0 8 0;
#X connect 5 0 23 0;
#X connect 9 0 12 0;
#X connect 10 0 11 1;
#X connect 11 0 0 0;
#X connect 11 0 0 1;
#X connect 12 0 10 0;
#X connect 13 0 10 0;
#X connect 14 0 13 0;
#X connect 16 0 17 0;
#X connect 18 0 5 0;
#X connect 18 0 30 0;
#X connect 19 0 24 0;
#X connect 20 0 37 0;
#X connect 21 0 26 0;
#X connect 22 0 23 1;
#X connect 23 0 27 0;
#X connect 24 0 1 1;
#X connect 25 0 26 1;
#X connect 26 0 27 1;
#X connect 27 0 1 0;
#X connect 28 0 29 0;
#X connect 29 0 35 0;
#X connect 30 0 21 0;
#X connect 31 0 32 0;
#X connect 33 0 34 0;
#X connect 34 0 37 0;
#X connect 35 0 22 0;
#X connect 36 0 25 0;
#X connect 37 0 28 0;
#X connect 37 0 31 0;
#X connect 37 0 36 0;
