#N canvas 0 26 712 630 10;
#X text 44 37 //PODESCRIPTION:GPS speed \, cardinal direction and screen
brightness.;
#X obj 152 549 dac~;
#X obj 167 344 loadbang;
#X msg 167 365 0.2 1000;
#X obj 167 386 line~;
#X obj 152 411 *~;
#X obj 38 224 r play;
#X obj 38 274 r stop;
#X obj 38 324 r freeze;
#X obj 45 128 loadbang;
#X obj 45 156 s patchLoaded;
#X text 133 155 //! strictly for testing whether ios load completed
ever outruns actual load completed;
#X obj 152 294 phasor~;
#X obj 38 244 print play;
#X obj 38 294 print stop;
#X obj 38 344 print freeze;
#X obj 167 454 r play;
#X obj 167 500 line~;
#X obj 152 522 *~;
#X msg 167 477 1 10;
#X msg 217 477 0 10;
#X obj 217 454 r stop;
#X text 44 67 //PODEFAULTLENGTH:180;
#X obj 38 374 r thaw;
#X obj 38 394 print thaw;
#X obj 152 232 psr CMMotionManager.deviceMotion.attitude.roll 200 400
EaseInOut;
#X obj 384 75 psr POPlaybackTimerView.playbackPercentage 0 1;
#X obj 340 355 print attitude.roll;
#X obj 329 331 f;
#X obj 353 274 loadbang;
#X obj 353 307 metro 100;
#X connect 2 0 3 0;
#X connect 3 0 4 0;
#X connect 4 0 5 1;
#X connect 5 0 18 0;
#X connect 6 0 13 0;
#X connect 7 0 14 0;
#X connect 8 0 15 0;
#X connect 9 0 10 0;
#X connect 12 0 5 0;
#X connect 16 0 19 0;
#X connect 17 0 18 1;
#X connect 18 0 1 0;
#X connect 18 0 1 1;
#X connect 19 0 17 0;
#X connect 20 0 17 0;
#X connect 21 0 20 0;
#X connect 23 0 24 0;
#X connect 25 0 12 0;
#X connect 25 0 28 1;
#X connect 28 0 27 0;
#X connect 29 0 30 0;
#X connect 30 0 28 0;
