#N canvas 0 22 450 300 10;
#X text 34 27 //PSDESCRIPTION:GPS speed \, cardinal direction and screen
brightness.;
#X obj 142 344 dac~;
#X obj 142 184 osc~ 222;
#X obj 157 254 loadbang;
#X msg 157 275 0.2 1000;
#X obj 157 296 line~;
#X obj 142 321 *~;
#X obj 28 164 r play;
#X obj 28 184 r stop;
#X obj 28 204 r freeze;
#X obj 28 224 r restart;
#X obj 142 142 random 1000;
#X obj 142 163 + 222;
#X obj 251 234 psr devicemotion.attitude.pitch 10 14;
#X obj 258 271 psr devicemotion.attitude.pitch 10 14;
#X obj 258 353 print;
#X obj 258 314 psr touch.position.x 120 240;
#X obj 35 69 loadbang;
#X obj 35 94 s patchLoaded;
#X connect 2 0 6 0;
#X connect 3 0 4 0;
#X connect 4 0 5 0;
#X connect 5 0 6 1;
#X connect 6 0 1 0;
#X connect 6 0 1 1;
#X connect 7 0 11 0;
#X connect 8 0 11 0;
#X connect 9 0 11 0;
#X connect 10 0 11 0;
#X connect 11 0 12 0;
#X connect 12 0 2 0;
#X connect 16 0 15 0;
#X connect 17 0 18 0;
